<?xml version="1.0" encoding="utf-8"?>
<!-- Generator: Adobe Illustrator 27.5.0, SVG Export Plug-In . SVG Version: 6.00 Build 0)  -->
<svg version="1.1" id="Layer_1" xmlns="http://www.w3.org/2000/svg" xmlns:xlink="http://www.w3.org/1999/xlink" x="0px" y="0px"
	 viewBox="0 0 500 500" style="enable-background:new 0 0 500 500;" xml:space="preserve">
<style type="text/css">
	.st0{fill:none;stroke:#231F20;stroke-width:50;stroke-linecap:round;stroke-miterlimit:10;}
	.st1{fill:#231F20;}
</style>
<g>
	<path class="st0" d="M201.75,410.8c23.59-23.59,71.84-22.53,96.5,2.13"/>
	<path class="st0" d="M143.45,360.35c52.1-52.1,158.65-49.74,213.1,4.71"/>
	<path class="st0" d="M92.79,305.54c76.87-76.87,234.07-73.39,314.41,6.95"/>
	<line class="st0" x1="250" y1="460.92" x2="250" y2="460.92"/>
	<path class="st1" d="M493.13,271.85c-1.93-7.41-6.31-12.86-13.2-16.16c-2.22-1.06-4.67-1.65-6.57-2.31
		c-1.96-11.54-3.44-22.91-5.89-34.06c-4.67-21.29-12.32-41.42-26.41-58.44c-18.8-22.71-42.59-31.22-71.54-24.12
		c-16.15,3.96-30.33,11.95-43.75,21.5c-2.21,1.58-4.46,3.19-6.89,4.35c-8.32,3.98-15.68,0.12-17.23-9.01
		c-3.5-20.64-5.17-41.35-1.92-62.19c1.61-10.31,4.63-20.18,10.48-28.97c5.01-7.52,11.55-13.16,20.31-16.09
		c0.57,0.98,0.99,1.74,1.45,2.47c5.95,9.51,17.73,13.77,28.25,10.21c10.55-3.57,17.64-14.14,16.59-24.74
		c-1.21-12.24-9.79-21.23-22.14-22.53c-9.75-1.03-20.6,4.5-24.69,15.62c-0.9,2.44-2.12,2.9-4.47,3.05c-7.28,0.45-14.61,0.78-21.78,2
		c-28.84,4.93-52.53,19.25-72.22,40.55c-16.85,18.23-29.16,39.37-39.35,61.84c-2.74,6.05-5.08,12.29-7.98,18.26
		c-2.67,5.51-7.01,6.79-12.54,4.16c-1.76-0.84-3.45-1.87-5.05-3c-11.64-8.19-23.79-15.37-37.46-19.69
		c-20.19-6.37-39.2-4.55-56.49,8.33c-11.78,8.78-20.21,20.43-27.34,33.08c-9.19,16.31-15.76,33.72-21.09,51.61
		c-0.72,2.43-1.8,3.73-4.38,4.35c-6.11,1.45-10.87,5.09-14.07,10.44c-1.58,2.65-2.49,5.69-3.71,8.56c0,2.84,0,5.68,0,8.52
		c0.23,0.57,0.53,1.12,0.68,1.71c2.53,10.07,12.55,20.05,27.71,17.98c10.84-1.48,20.07-12.21,20.13-23.68
		c0.04-7.03-2.72-12.89-7.64-18.1c9.57-11.11,19.71-21.18,33.93-25.95c9.32-3.12,18.24-2.08,26.75,2.78
		c6.27,3.58,11.29,8.56,15.58,14.29c11.24,15.04,17.47,32.3,21.85,50.31c0.63,2.57,1.17,5.16,1.7,7.75
		c63.66-26.29,143.14-25.75,209.31,0.99c2.11-6.05,4.26-12.1,6.62-18.05c5.73-14.46,12.77-28.19,23.33-39.88
		c12.9-14.28,28.61-16.64,44.91-6.34c13.09,8.27,22.48,20.19,31.5,32.59c-0.77,0.52-1.4,0.94-2.02,1.36
		c-8.31,5.73-12.28,13.74-10.86,23.64c1.52,10.57,7.88,17.72,18.35,20.28c10.2,2.5,18.84-0.84,25.1-9.22
		c2.2-2.94,3.24-6.75,4.81-10.17c0-2.84,0-5.68,0-8.52C493.57,272.77,493.26,272.34,493.13,271.85z"/>
</g>
</svg>
